<svg width="24" height="25" viewBox="0 0 24 25" fill="none" xmlns="http://www.w3.org/2000/svg">
<path d="M14.6261 20.268C14.8882 20.2685 15.1423 20.18 15.3441 20.0177C15.4577 19.9264 15.5516 19.8142 15.6205 19.6875C15.6893 19.5609 15.7317 19.4224 15.7453 19.2798C15.7588 19.1373 15.7432 18.9935 15.6994 18.8569C15.6556 18.7202 15.5845 18.5932 15.49 18.4832L10.4637 12.6499L15.3105 6.80575C15.4037 6.69443 15.4733 6.56634 15.5153 6.42885C15.5573 6.29135 15.5708 6.14716 15.5552 6.00456C15.5395 5.86196 15.495 5.72377 15.4241 5.59792C15.3533 5.47207 15.2574 5.36105 15.1422 5.27125C15.0261 5.17217 14.8902 5.09744 14.7429 5.05174C14.5956 5.00605 14.4402 4.99037 14.2864 5.0057C14.1326 5.02103 13.9837 5.06703 13.8491 5.14082C13.7145 5.21461 13.597 5.31459 13.5042 5.43449L8.08523 11.9643C7.92021 12.159 7.83 12.4033 7.83 12.6554C7.83 12.9074 7.92021 13.1517 8.08523 13.3464L13.6949 19.8762C13.8074 20.0079 13.9504 20.1121 14.1122 20.1801C14.274 20.2482 14.4501 20.2783 14.6261 20.268Z" fill="#898989"/>
</svg>
