<svg width="100" height="100" viewBox="0 0 100 100" fill="none" xmlns="http://www.w3.org/2000/svg">
<circle cx="50" cy="50" r="50" fill="#F5F5F5"/>
<g clip-path="url(#clip0_362_234)">
<path d="M47.6428 30.069C47.883 29.6569 48.2271 29.3149 48.6407 29.0772C49.0543 28.8396 49.5229 28.7145 50 28.7145C50.477 28.7145 50.9457 28.8396 51.3593 29.0772C51.7729 29.3149 52.1169 29.6569 52.3571 30.069L58.4573 40.5409L70.3041 43.1075C70.7701 43.2088 71.2015 43.4304 71.5551 43.7504C71.9087 44.0703 72.1723 44.4773 72.3196 44.9309C72.4669 45.3844 72.4927 45.8687 72.3945 46.3353C72.2963 46.802 72.0775 47.2347 71.7599 47.5905L63.6845 56.6284L64.9067 68.6869C64.9549 69.1617 64.8777 69.6409 64.6829 70.0765C64.488 70.5122 64.1822 70.8891 63.7961 71.1697C63.41 71.4502 62.957 71.6245 62.4825 71.6752C62.0079 71.726 61.5283 71.6513 61.0916 71.4587L50 66.5698L38.9083 71.4587C38.4716 71.6513 37.9921 71.726 37.5175 71.6752C37.0429 71.6245 36.59 71.4502 36.2039 71.1697C35.8177 70.8891 35.512 70.5122 35.3171 70.0765C35.1222 69.6409 35.045 69.1617 35.0932 68.6869L36.3155 56.6284L28.2401 47.5926C27.9219 47.237 27.7026 46.804 27.6041 46.3371C27.5056 45.8701 27.5313 45.3855 27.6786 44.9316C27.8259 44.4777 28.0897 44.0704 28.4437 43.7503C28.7977 43.4302 29.2294 43.2086 29.6958 43.1075L41.5426 40.5409L47.6428 30.069Z" fill="black"/>
</g>
<defs>
<clipPath id="clip0_362_234">
<rect width="52.381" height="52.381" fill="white" transform="translate(23.8095 23.8095)"/>
</clipPath>
</defs>
</svg>
